<mxfile host="app.diagrams.net" modified="2024-08-27T18:05:46.473Z" agent="Mozilla/5.0 (Macintosh; Intel Mac OS X 10_15_7) AppleWebKit/537.36 (KHTML, like Gecko) Chrome/127.0.0.0 Safari/537.36" etag="4yNNITSrT0VTopX6ZjgZ" version="24.1.0" type="google">
  <diagram name="Page-1" id="CSalZxP-EwK7I47IeyNT">
    <mxGraphModel dx="1194" dy="671" grid="1" gridSize="10" guides="1" tooltips="1" connect="1" arrows="1" fold="1" page="1" pageScale="1" pageWidth="827" pageHeight="1169" math="0" shadow="0">
      <root>
        <mxCell id="0" />
        <mxCell id="1" parent="0" />
        <mxCell id="s6Om0stmJQpJEI7fIx4P-2" style="edgeStyle=orthogonalEdgeStyle;rounded=0;orthogonalLoop=1;jettySize=auto;html=1;exitX=0.5;exitY=1;exitDx=0;exitDy=0;" edge="1" parent="1" source="s6Om0stmJQpJEI7fIx4P-1" target="s6Om0stmJQpJEI7fIx4P-3">
          <mxGeometry relative="1" as="geometry">
            <mxPoint x="414" y="160" as="targetPoint" />
          </mxGeometry>
        </mxCell>
        <mxCell id="s6Om0stmJQpJEI7fIx4P-1" value="onboarding request" style="rounded=0;whiteSpace=wrap;html=1;" vertex="1" parent="1">
          <mxGeometry x="354" y="40" width="120" height="60" as="geometry" />
        </mxCell>
        <mxCell id="s6Om0stmJQpJEI7fIx4P-5" style="edgeStyle=orthogonalEdgeStyle;rounded=0;orthogonalLoop=1;jettySize=auto;html=1;exitX=0.5;exitY=1;exitDx=0;exitDy=0;entryX=0.5;entryY=0;entryDx=0;entryDy=0;" edge="1" parent="1" source="s6Om0stmJQpJEI7fIx4P-3" target="s6Om0stmJQpJEI7fIx4P-4">
          <mxGeometry relative="1" as="geometry" />
        </mxCell>
        <mxCell id="s6Om0stmJQpJEI7fIx4P-3" value="dynamodb item&lt;div&gt;{domain, verified}&lt;/div&gt;" style="rounded=0;whiteSpace=wrap;html=1;" vertex="1" parent="1">
          <mxGeometry x="354" y="140" width="120" height="60" as="geometry" />
        </mxCell>
        <mxCell id="s6Om0stmJQpJEI7fIx4P-8" style="edgeStyle=orthogonalEdgeStyle;rounded=0;orthogonalLoop=1;jettySize=auto;html=1;exitX=0.5;exitY=1;exitDx=0;exitDy=0;entryX=0.5;entryY=0;entryDx=0;entryDy=0;" edge="1" parent="1" source="s6Om0stmJQpJEI7fIx4P-4" target="s6Om0stmJQpJEI7fIx4P-7">
          <mxGeometry relative="1" as="geometry" />
        </mxCell>
        <mxCell id="s6Om0stmJQpJEI7fIx4P-4" value="crawl start" style="rounded=0;whiteSpace=wrap;html=1;" vertex="1" parent="1">
          <mxGeometry x="354" y="290" width="120" height="60" as="geometry" />
        </mxCell>
        <mxCell id="s6Om0stmJQpJEI7fIx4P-6" value="verified == true" style="text;html=1;align=center;verticalAlign=middle;whiteSpace=wrap;rounded=0;" vertex="1" parent="1">
          <mxGeometry x="420" y="230" width="120" height="30" as="geometry" />
        </mxCell>
        <mxCell id="s6Om0stmJQpJEI7fIx4P-10" style="edgeStyle=orthogonalEdgeStyle;rounded=0;orthogonalLoop=1;jettySize=auto;html=1;exitX=1;exitY=0.25;exitDx=0;exitDy=0;entryX=0;entryY=0.25;entryDx=0;entryDy=0;" edge="1" parent="1" source="s6Om0stmJQpJEI7fIx4P-7" target="s6Om0stmJQpJEI7fIx4P-9">
          <mxGeometry relative="1" as="geometry" />
        </mxCell>
        <mxCell id="s6Om0stmJQpJEI7fIx4P-15" style="edgeStyle=orthogonalEdgeStyle;rounded=0;orthogonalLoop=1;jettySize=auto;html=1;exitX=0.5;exitY=1;exitDx=0;exitDy=0;entryX=0.5;entryY=0;entryDx=0;entryDy=0;" edge="1" parent="1" source="s6Om0stmJQpJEI7fIx4P-7" target="s6Om0stmJQpJEI7fIx4P-12">
          <mxGeometry relative="1" as="geometry" />
        </mxCell>
        <mxCell id="s6Om0stmJQpJEI7fIx4P-16" style="edgeStyle=orthogonalEdgeStyle;rounded=0;orthogonalLoop=1;jettySize=auto;html=1;exitX=0.75;exitY=1;exitDx=0;exitDy=0;entryX=0.5;entryY=0;entryDx=0;entryDy=0;" edge="1" parent="1" source="s6Om0stmJQpJEI7fIx4P-7" target="s6Om0stmJQpJEI7fIx4P-13">
          <mxGeometry relative="1" as="geometry" />
        </mxCell>
        <mxCell id="s6Om0stmJQpJEI7fIx4P-17" style="edgeStyle=orthogonalEdgeStyle;rounded=0;orthogonalLoop=1;jettySize=auto;html=1;exitX=0.25;exitY=1;exitDx=0;exitDy=0;" edge="1" parent="1" source="s6Om0stmJQpJEI7fIx4P-7" target="s6Om0stmJQpJEI7fIx4P-14">
          <mxGeometry relative="1" as="geometry" />
        </mxCell>
        <mxCell id="s6Om0stmJQpJEI7fIx4P-7" value="visit page" style="rounded=0;whiteSpace=wrap;html=1;" vertex="1" parent="1">
          <mxGeometry x="354" y="420" width="120" height="60" as="geometry" />
        </mxCell>
        <mxCell id="s6Om0stmJQpJEI7fIx4P-11" style="edgeStyle=orthogonalEdgeStyle;rounded=0;orthogonalLoop=1;jettySize=auto;html=1;exitX=0;exitY=0.75;exitDx=0;exitDy=0;entryX=1;entryY=0.75;entryDx=0;entryDy=0;" edge="1" parent="1" source="s6Om0stmJQpJEI7fIx4P-9" target="s6Om0stmJQpJEI7fIx4P-7">
          <mxGeometry relative="1" as="geometry" />
        </mxCell>
        <mxCell id="s6Om0stmJQpJEI7fIx4P-9" value="render page" style="rounded=0;whiteSpace=wrap;html=1;" vertex="1" parent="1">
          <mxGeometry x="550" y="420" width="120" height="60" as="geometry" />
        </mxCell>
        <mxCell id="s6Om0stmJQpJEI7fIx4P-20" style="edgeStyle=orthogonalEdgeStyle;rounded=0;orthogonalLoop=1;jettySize=auto;html=1;exitX=0.5;exitY=1;exitDx=0;exitDy=0;" edge="1" parent="1" source="s6Om0stmJQpJEI7fIx4P-12" target="s6Om0stmJQpJEI7fIx4P-19">
          <mxGeometry relative="1" as="geometry" />
        </mxCell>
        <mxCell id="s6Om0stmJQpJEI7fIx4P-12" value="save html file" style="rounded=0;whiteSpace=wrap;html=1;" vertex="1" parent="1">
          <mxGeometry x="354" y="525" width="120" height="60" as="geometry" />
        </mxCell>
        <mxCell id="s6Om0stmJQpJEI7fIx4P-13" value="update dynamodb record for url" style="rounded=0;whiteSpace=wrap;html=1;" vertex="1" parent="1">
          <mxGeometry x="520" y="525" width="120" height="60" as="geometry" />
        </mxCell>
        <mxCell id="s6Om0stmJQpJEI7fIx4P-18" style="edgeStyle=orthogonalEdgeStyle;rounded=0;orthogonalLoop=1;jettySize=auto;html=1;exitX=0.25;exitY=0;exitDx=0;exitDy=0;entryX=0;entryY=0.5;entryDx=0;entryDy=0;" edge="1" parent="1" source="s6Om0stmJQpJEI7fIx4P-14" target="s6Om0stmJQpJEI7fIx4P-7">
          <mxGeometry relative="1" as="geometry" />
        </mxCell>
        <mxCell id="s6Om0stmJQpJEI7fIx4P-14" value="send all links to sqs" style="rounded=0;whiteSpace=wrap;html=1;" vertex="1" parent="1">
          <mxGeometry x="180" y="525" width="120" height="60" as="geometry" />
        </mxCell>
        <mxCell id="s6Om0stmJQpJEI7fIx4P-22" style="edgeStyle=orthogonalEdgeStyle;rounded=0;orthogonalLoop=1;jettySize=auto;html=1;exitX=0.5;exitY=1;exitDx=0;exitDy=0;" edge="1" parent="1" source="s6Om0stmJQpJEI7fIx4P-19" target="s6Om0stmJQpJEI7fIx4P-21">
          <mxGeometry relative="1" as="geometry" />
        </mxCell>
        <mxCell id="s6Om0stmJQpJEI7fIx4P-26" style="edgeStyle=orthogonalEdgeStyle;rounded=0;orthogonalLoop=1;jettySize=auto;html=1;exitX=0.75;exitY=1;exitDx=0;exitDy=0;dashed=1;" edge="1" parent="1" source="s6Om0stmJQpJEI7fIx4P-19" target="s6Om0stmJQpJEI7fIx4P-25">
          <mxGeometry relative="1" as="geometry" />
        </mxCell>
        <mxCell id="s6Om0stmJQpJEI7fIx4P-28" style="edgeStyle=orthogonalEdgeStyle;rounded=0;orthogonalLoop=1;jettySize=auto;html=1;exitX=0.25;exitY=1;exitDx=0;exitDy=0;dashed=1;" edge="1" parent="1" source="s6Om0stmJQpJEI7fIx4P-19" target="s6Om0stmJQpJEI7fIx4P-27">
          <mxGeometry relative="1" as="geometry" />
        </mxCell>
        <mxCell id="s6Om0stmJQpJEI7fIx4P-19" value="s3 event" style="rounded=0;whiteSpace=wrap;html=1;" vertex="1" parent="1">
          <mxGeometry x="354" y="660" width="120" height="60" as="geometry" />
        </mxCell>
        <mxCell id="s6Om0stmJQpJEI7fIx4P-24" style="edgeStyle=orthogonalEdgeStyle;rounded=0;orthogonalLoop=1;jettySize=auto;html=1;exitX=0.5;exitY=1;exitDx=0;exitDy=0;entryX=0.5;entryY=0;entryDx=0;entryDy=0;" edge="1" parent="1" source="s6Om0stmJQpJEI7fIx4P-21" target="s6Om0stmJQpJEI7fIx4P-23">
          <mxGeometry relative="1" as="geometry" />
        </mxCell>
        <mxCell id="s6Om0stmJQpJEI7fIx4P-30" style="edgeStyle=orthogonalEdgeStyle;rounded=0;orthogonalLoop=1;jettySize=auto;html=1;exitX=0.75;exitY=1;exitDx=0;exitDy=0;" edge="1" parent="1" source="s6Om0stmJQpJEI7fIx4P-21" target="s6Om0stmJQpJEI7fIx4P-29">
          <mxGeometry relative="1" as="geometry" />
        </mxCell>
        <mxCell id="s6Om0stmJQpJEI7fIx4P-21" value="read html, send to opensearch" style="rounded=0;whiteSpace=wrap;html=1;" vertex="1" parent="1">
          <mxGeometry x="354" y="800" width="120" height="60" as="geometry" />
        </mxCell>
        <mxCell id="s6Om0stmJQpJEI7fIx4P-23" value="opensearch - fulltext search" style="rounded=0;whiteSpace=wrap;html=1;" vertex="1" parent="1">
          <mxGeometry x="354" y="950" width="120" height="60" as="geometry" />
        </mxCell>
        <mxCell id="s6Om0stmJQpJEI7fIx4P-25" value="get images" style="rounded=0;whiteSpace=wrap;html=1;" vertex="1" parent="1">
          <mxGeometry x="580" y="800" width="120" height="60" as="geometry" />
        </mxCell>
        <mxCell id="s6Om0stmJQpJEI7fIx4P-27" value="send to LLM for tagging" style="rounded=0;whiteSpace=wrap;html=1;" vertex="1" parent="1">
          <mxGeometry x="130" y="800" width="120" height="60" as="geometry" />
        </mxCell>
        <mxCell id="s6Om0stmJQpJEI7fIx4P-29" value="Document: {text: str, domain: str, url: str, language?, images?, headers, ...}" style="text;html=1;align=left;verticalAlign=middle;whiteSpace=wrap;rounded=0;" vertex="1" parent="1">
          <mxGeometry x="500" y="970" width="220" height="30" as="geometry" />
        </mxCell>
      </root>
    </mxGraphModel>
  </diagram>
</mxfile>
